<?xml version="1.0" standalone="no"?>
<!DOCTYPE svg PUBLIC "-//W3C//DTD SVG 20010904//EN"
 "http://www.w3.org/TR/2001/REC-SVG-20010904/DTD/svg10.dtd">
<svg version="1.0" xmlns="http://www.w3.org/2000/svg"
 width="225.000000pt" height="224.000000pt" viewBox="0 0 225.000000 224.000000"
 preserveAspectRatio="xMidYMid meet">
<metadata>
Created by potrace 1.16, written by Peter Selinger 2001-2019
</metadata>
<g transform="translate(0.000000,224.000000) scale(0.100000,-0.100000)"
fill="#000000" stroke="none">
<path  d="M925 2116 c-407 -79 -725 -402 -796 -810 -19 -114 -7 -332 25 -441
77 -256 227 -444 476 -597 52 -32 208 -87 289 -102 96 -18 266 -21 361 -5 36
5 99 21 140 35 321 108 555 356 652 689 20 71 23 101 22 255 0 200 -14 268
-82 414 -54 115 -112 198 -201 287 -125 125 -277 213 -446 259 -102 28 -334
36 -440 16z m340 -91 c335 -59 610 -306 711 -640 24 -81 27 -106 27 -245 1
-140 -2 -163 -26 -243 -95 -309 -316 -530 -624 -624 -79 -24 -103 -27 -243
-27 -140 0 -164 3 -245 28 -373 114 -630 433 -652 812 -34 580 480 1038 1052
939z"/>
<path  d="M990 1944 c-187 -38 -319 -103 -438 -218 -104 -99 -159 -184 -206
-315 l-27 -74 53 -51 c172 -166 443 -188 612 -50 l56 45 0 82 c0 45 -3 106 -6
135 l-7 52 -88 0 -89 0 0 55 0 55 87 0 86 0 -7 110 -6 110 100 0 100 0 -7
-110 -6 -110 86 0 87 0 0 -55 0 -55 -89 0 -88 0 -7 -56 c-4 -31 -4 -59 -1 -62
3 -3 22 0 44 6 56 17 157 15 197 -4 41 -20 101 -84 120 -130 8 -19 17 -34 20
-34 2 0 21 9 42 19 93 48 142 144 142 276 l0 76 -52 56 c-97 102 -232 184
-370 224 -72 20 -278 34 -338 23z"/>
<path d="M1806 1477 c-9 -60 -57 -156 -97 -194 -19 -18 -55 -41 -80 -52 -44
-20 -47 -23 -52 -67 -2 -25 -12 -53 -21 -62 -15 -15 -18 -15 -44 0 -16 10 -47
20 -70 24 -46 7 -67 25 -58 49 6 17 61 20 100 5 25 -9 26 -8 26 23 0 45 -45
132 -82 159 -42 29 -121 35 -186 14 -50 -17 -80 -42 -182 -150 -158 -168 -438
-190 -645 -52 -49 33 -65 40 -65 28 0 -32 81 -179 135 -244 36 -43 53 -72 49
-82 -21 -56 -119 43 -202 204 l-33 65 5 -83 c6 -99 54 -250 107 -338 76 -127
235 -268 369 -326 120 -53 175 -63 335 -63 143 1 155 2 244 33 114 40 208 94
281 162 l55 51 -48 -31 c-194 -128 -448 -178 -667 -132 -197 41 -389 150 -314
179 9 3 48 -11 92 -35 43 -22 118 -53 167 -68 77 -23 109 -27 220 -28 157 -1
254 22 385 90 89 46 221 148 241 187 9 16 2 12 -27 -14 -209 -188 -524 -260
-780 -179 -89 28 -123 52 -108 77 14 22 18 21 114 -13 108 -39 272 -45 391
-15 91 23 203 72 271 119 84 58 192 179 211 237 l7 20 -15 -20 c-100 -133
-159 -186 -270 -244 -124 -64 -325 -90 -450 -58 -43 11 -50 17 -50 38 0 27
-14 26 160 13 181 -12 334 45 466 176 157 157 213 367 154 579 -10 33 -21 61
-25 61 -4 0 -11 -19 -14 -43z"/>
</g>
</svg>
