<?xml version="1.0" encoding="UTF-8" standalone="no"?>
<svg
   xmlns:dc="http://purl.org/dc/elements/1.1/"
   xmlns:cc="http://creativecommons.org/ns#"
   xmlns:rdf="http://www.w3.org/1999/02/22-rdf-syntax-ns#"
   xmlns:svg="http://www.w3.org/2000/svg"
   xmlns="http://www.w3.org/2000/svg"
   version="1.1"
   id="svg10"
   width="674"
   height="235"
   viewBox="0 0 674 235">
  <metadata
     id="metadata16">
    <rdf:RDF>
      <cc:Work
         rdf:about="">
        <dc:format>image/svg+xml</dc:format>
        <dc:type
           rdf:resource="http://purl.org/dc/dcmitype/StillImage" />
        <dc:title></dc:title>
      </cc:Work>
    </rdf:RDF>
  </metadata>
  <defs
     id="defs14" />
  <g
     id="g18">
    <path
       style="fill:#051C59"
       d="M 93.499996,232.24505 C 75.948656,228.15602 61.189311,221.48762 47.912832,211.64839 39.757656,205.60457 26.712508,192.12655 21.29136,184.14356 -2.7300959,148.77039 -6.0159779,105.07438 12.488788,67.085999 31.759988,27.524199 69.490416,2.8536292 113.5,1.0383892 c 20.92633,-0.86313003 36.90516,2.38017 55.43587,11.2520698 13.52656,6.47609 22.28998,12.6311 32.62111,22.91153 39.685,39.49024 45.82106,100.277091 14.89257,147.533191 -2.69232,4.11363 -9.18237,11.80015 -14.42234,17.08116 -17.63692,17.77505 -36.34586,27.86843 -60.95062,32.88256 -14.19396,2.89255 -34.02488,2.70337 -47.576594,-0.45385 z m 42.618204,-8.9922 c 34.48148,-5.19782 64.68672,-27.78603 79.86267,-59.72324 6.97305,-14.67453 9.17408,-24.13401 9.72953,-41.8151 0.40619,-12.93006 0.15665,-17.09479 -1.50508,-25.118615 -7.18136,-34.675976 -31.71579,-64.072456 -64.69773,-77.519056 -14.42585,-5.88136 -25.2774,-7.64542 -43.50759,-7.07272 -12.87068,0.40433 -17.026703,0.93573 -24.500004,3.13264 -19.58075,5.75612 -35.482164,15.46823 -49.308916,30.11643 -10.087924,10.68725 -17.061531,21.71351 -21.929635,34.67386 -5.507376,14.662276 -6.645767,21.350961 -6.601494,38.787461 0.03432,13.51694 0.378943,16.7794 2.693623,25.5 5.413329,20.39482 18.344396,41.32572 33.459612,54.15948 24.73267,20.99958 54.711194,29.64139 86.305014,24.87886 z M 102.5,213.30799 C 90.648076,210.99215 74.285166,203.99327 62.619224,196.24986 55.837555,191.74845 44.199047,178.82862 36.493438,167.2478 c -5.679606,-8.53592 -8.92096,-17.65008 -11.943325,-33.5827 -1.809006,-9.5363 -1.99628,-14.34437 -0.523254,-13.43399 0.564772,0.34905 2.795492,4.15227 4.957156,8.45161 4.022366,8.00009 13.466659,20.13225 17.246851,22.15535 1.726255,0.92386 2.352953,0.79851 3.439969,-0.68808 C 50.401876,149.15023 51,148.0277 51,147.65547 c 0,-0.37222 -2.753996,-4.22371 -6.11999,-8.55887 -3.365995,-4.33515 -7.110582,-9.45709 -8.321306,-11.38209 -2.626838,-4.17656 -7.844726,-17.04731 -7.180412,-17.71163 0.257163,-0.25716 3.089751,1.30941 6.294639,3.48128 8.472809,5.74179 12.941399,7.78366 21.024474,9.60689 14.315681,3.22907 29.406731,1.65603 41.802592,-4.35735 6.781253,-3.28967 9.668213,-5.57819 18.950263,-15.02204 11.97977,-12.188581 12.63381,-12.666911 20.00361,-14.629571 7.27859,-1.93836 10.16467,-1.70002 15.66513,1.29371 7.53039,4.098556 12.881,12.325961 12.881,19.806591 0,3.91002 -0.24522,4.00278 -6.45104,2.44013 -5.05142,-1.27196 -8.54896,-0.007 -8.54896,3.09199 0,2.42612 2.15544,3.55458 8.5,4.45011 2.75,0.38816 5.99667,1.34567 7.21482,2.12782 2.82384,1.81311 3.77617,1.78822 5.71375,-0.14936 C 173.4639,121.10775 174,118.75394 174,115.24351 v -5.32814 l 5.08758,-1.82947 c 10.4643,-3.76291 17.79567,-12.708345 21.19622,-25.862781 1.20976,-4.67973 2.52823,-8.5086 2.92995,-8.5086 0.40171,0 1.53045,2.5875 2.50832,5.75 1.39024,4.49619 1.77793,9.23886 1.77793,21.749991 0,17.67988 -0.0997,18.05202 -9.49008,35.42183 -4.01499,7.42671 -17.51041,19.9343 -26.92007,24.9496 -13.33861,7.1094 -36.24031,10.76499 -48.5567,7.75065 -6.82018,-1.66918 -9.53315,-0.868 -9.53315,2.81528 0,3.29561 4.0964,4.55128 17.19108,5.26959 12.97928,0.71198 23.44614,-0.80101 33.80892,-4.88709 18.33258,-7.2286 29.5835,-16.14552 39.11702,-31.00222 1.80583,-2.81414 3.45217,-4.61007 3.65854,-3.99097 0.84959,2.54878 -5.85847,12.1679 -14.77556,21.18763 -7.85895,7.94942 -11.05468,10.39911 -18.5,14.1812 -16.85585,8.56246 -29.4473,11.74523 -46.62178,11.78469 -9.03247,0.0208 -24.60534,-3.23636 -30.807034,-6.44338 -3.53668,-1.82889 -6.55207,-1.33199 -7.53999,1.2425 -1.27486,3.32222 7.95296,7.90378 21.968804,10.90739 11.53587,2.47215 31.27371,1.31768 44.94019,-2.62858 14.02321,-4.04925 27.3858,-11.50989 37.85465,-21.13509 4.28716,-3.94168 8.0028,-6.95872 8.25698,-6.70454 0.87274,0.87274 -5.24423,8.33771 -10.14634,12.38229 -13.90681,11.4741 -21.14241,15.48075 -39.63585,21.94796 -9.46817,3.31105 -11.40123,3.63144 -24.76963,4.10543 -14.33238,0.50817 -14.64983,0.47233 -27.460873,-3.10041 -8.099851,-2.25888 -16.143051,-5.30735 -21.445471,-8.12808 -9.05032,-4.81449 -12.400974,-5.27723 -12.899349,-1.78143 -0.740589,5.19478 24.742319,16.78062 42.663773,19.39716 11.91529,1.73963 30.26991,0.71408 42.18653,-2.35714 9.54737,-2.46061 26.28422,-10.1409 32.88378,-15.08989 1.88561,-1.41401 3.65548,-2.34384 3.93303,-2.06629 2.04825,2.04825 -12.05169,12.7118 -26.12389,19.75705 -15.79407,7.90731 -41.51249,11.57638 -58.23753,8.30834 z m -45,-97.45827 c -9.562212,-2.74484 -17.26626,-7.1463 -24.782026,-14.15843 l -6.991745,-6.523215 1.720135,-5.917056 C 33.533542,68.311859 53.410999,44.528399 73.572906,34.060409 92.003926,24.491089 108.57378,21.057749 128,22.782919 c 24.00091,2.13142 41.4122,10.62938 60.37103,29.46539 l 6.87103,6.82652 -0.43572,10.57519 c -0.35476,8.61044 -0.91043,11.6121 -2.99084,16.15633 -2.9099,6.35606 -7.87189,11.757976 -13.06323,14.221421 -5.77977,2.74269 -7.13803,2.26825 -9.80445,-3.424665 -5.65744,-12.078876 -19.9951,-18.342426 -33.19986,-14.503696 -8.08237,2.34961 -7.87762,2.48897 -7.54365,-5.13489 l 0.29569,-6.75 9.96497,-0.28881 c 6.42603,-0.18624 10.23832,-0.71894 10.73468,-1.5 0.92208,-1.45094 1.04536,-7.90913 0.19336,-10.12941 -0.42529,-1.10828 -1.99686,-1.60801 -5.25,-1.66939 -2.55365,-0.0482 -6.89301,-0.38568 -9.64301,-0.75 l -5,-0.66239 v -12 -12 H 119 108.5 l -0.10841,11.61639 c -0.0596,6.38902 -0.42369,12.12652 -0.80902,12.75 -0.44207,0.71529 -4.18449,1.13361 -10.141583,1.13361 h -9.440991 v 5.87755 c 0,3.61219 0.50265,6.29471 1.30413,6.95988 0.71727,0.59528 5.55477,1.21288 10.749994,1.37245 l 9.44588,0.29012 0.78911,14.5 0.78911,14.499991 -4.36596,4 c -7.417343,6.79562 -11.976384,9.39362 -20.154744,11.48529 -9.60884,2.45753 -20.817039,2.51536 -29.057516,0.14992 z m 226.75067,87.37941 c -11.74804,-3.29723 -18.67155,-8.90873 -23.35104,-18.92602 -8.62302,-18.4591 -3.83305,-42.65891 10.37883,-52.43585 6.88055,-4.73342 13.16329,-6.50489 23.22154,-6.54751 7.77939,-0.033 9.74593,0.32604 14.5,2.64702 6.24551,3.04912 11,7.09698 11,9.36513 0,1.97341 -5.38264,7.38261 -7.34635,7.38261 -0.82511,0 -2.8445,-1.13115 -4.48754,-2.51368 -9.00799,-7.57973 -21.64903,-7.08998 -29.3625,1.13758 -5.05699,5.39404 -7.29803,11.95777 -7.29838,21.3761 -2.8e-4,7.44219 0.37272,9.24668 2.99723,14.49989 7.32547,14.66269 22.4221,17.66706 34.44732,6.85535 2.66424,-2.39538 5.18548,-4.35524 5.60276,-4.35524 0.41727,0 2.26365,1.1479 4.10307,2.55089 4.56903,3.48497 4.3676,6.29197 -0.7856,10.94758 -8.92648,8.06454 -22.18394,11.22563 -33.61934,8.01615 z m 121.59795,0.0975 c -9.25772,-2.49363 -11.83113,-5.94227 -7.98162,-10.69622 1.85936,-2.29621 1.88846,-2.29871 7.11483,-0.61078 9.7502,3.14896 16.01817,1.45117 16.01817,-4.33879 0,-3.49619 -1.62381,-4.64828 -12,-8.51405 -4.45941,-1.6614 -8.81759,-4.1033 -10.75,-6.02325 -2.78606,-2.7681 -3.24686,-3.9214 -3.22804,-8.07905 0.0615,-13.57119 10.96826,-21.37855 25.96858,-18.58895 11.49972,2.13859 14.39529,5.35373 9.71839,10.79095 l -2.39911,2.78913 -4.17514,-1.67057 c -7.10066,-2.84112 -13.63548,-1.5077 -14.77032,3.01387 -0.86521,3.44723 0.88455,4.88137 10.28387,8.42891 9.79955,3.69859 13.66591,6.86544 15.38431,12.60094 1.85326,6.18561 0.53192,10.98651 -4.3687,15.87318 -5.96825,5.95125 -14.76355,7.73215 -24.81522,5.02468 z m 53.8919,-0.0412 c -8.92163,-3.18418 -10.03329,-5.99628 -10.7015,-27.07092 l -0.53902,-17 -2.5,-0.34582 c -3.78193,-0.52314 -5,-2.02239 -5,-6.15418 0,-4.13179 1.21807,-5.63104 5,-6.15418 2.32241,-0.32125 2.54205,-0.83582 3.09197,-7.24368 0.7794,-9.08185 3.90128,-11.4562 11.34293,-8.62689 2.35632,0.89587 2.5651,1.45896 2.5651,6.91821 0,8.66394 0.31765,9.10654 6.53556,9.10654 6.13303,0 8.46444,1.65667 8.46444,6.01472 0,3.75984 -3.23012,5.98528 -8.68732,5.98528 -6.00765,0 -6.53604,1.4775 -6.14056,17.17042 0.31095,12.33895 0.45196,13.11121 2.73068,14.95423 1.76131,1.42456 3.63013,1.86756 7,1.65937 l 4.5972,-0.28402 0.30495,4.75386 c 0.26872,4.18912 0.0311,4.85531 -2,5.60786 -4.66329,1.72779 -12.26969,2.06361 -16.06443,0.70923 z m 61.89674,0.009 c -15.03353,-5.53533 -15.49552,-25.28456 -0.74573,-31.87824 3.3413,-1.49368 6.8082,-2.07968 12.60847,-2.13116 7.45356,-0.0662 8.02137,-0.22118 8.31279,-2.26944 0.4388,-3.08402 -1.39963,-6.07885 -5.12661,-8.35135 -4.04563,-2.4668 -8.24098,-2.47143 -13.06025,-0.0144 -4.49133,2.28981 -5.64146,2.00079 -8.01279,-2.01355 -2.17879,-3.6884 -1.16121,-5.33916 4.9659,-8.05594 13.78654,-6.11298 28.934,-1.48355 33.87028,10.35157 2.31387,5.54769 2.2873,43.28548 -0.0311,44.17513 -3.63852,1.39623 -9.3424,0.60473 -11.37655,-1.57867 l -2.03625,-2.18566 -3.8142,2.1437 c -5.14247,2.89023 -10.82179,3.55041 -15.55395,1.80804 z m 13.72254,-9.95739 c 5.50938,-2.30197 8.68124,-11.46033 4.70594,-13.58785 -2.55202,-1.3658 -8.35108,-1.31792 -11.4511,0.0945 -5.43593,2.47678 -5.80886,10.94778 -0.59803,13.58428 3.12402,1.58065 3.3491,1.57787 7.34319,-0.091 z m 103.55377,10.47253 c -9.51862,-3.07335 -14.49348,-14.10502 -10.54245,-23.37768 3.1517,-7.39671 10.46052,-11.03155 21.93008,-10.90632 6.21055,0.0678 7.92368,-0.23401 8.40189,-1.48021 1.70373,-4.43985 -5.08104,-11.35201 -11.10097,-11.30939 -1.70617,0.0121 -5.00761,0.88694 -7.33655,1.94414 -3.79129,1.72101 -4.39373,1.76288 -5.75655,0.40006 -3.61936,-3.61936 -3.76149,-5.26754 -0.71677,-8.31225 9.88312,-9.88312 32.95904,-4.35906 38.0824,9.1164 0.50845,1.33733 1.08216,11.31251 1.27491,22.16705 0.39013,21.97052 0.49338,21.61904 -6.35909,21.64733 -2.72247,0.0112 -4.35102,-0.67651 -6.12037,-2.58467 l -2.41083,-2.59997 -3.91284,2.58939 c -4.23513,2.80268 -11.29807,4.04115 -15.43286,2.70612 z m 15.31621,-11.06167 c 3.10136,-2.43953 5.02744,-6.91277 4.59702,-10.6764 -0.31564,-2.75992 -0.53653,-2.86756 -6.46882,-3.1524 -5.23924,-0.25157 -6.5178,0.0424 -8.69862,2 -2.57916,2.31516 -2.99391,3.44168 -2.77784,7.54491 0.29813,5.66165 8.3227,8.237 13.34826,4.28389 z M 332.2,202.51451 c -1.55791,-1.55791 -1.70913,-50.98016 -0.16482,-53.86574 0.78231,-1.46175 2.10842,-1.93426 5.42858,-1.93426 4.22899,0 6.8273,1.41148 7.79071,4.23214 0.31778,0.9304 1.54492,0.64879 4.61043,-1.05801 5.12463,-2.85327 9.77319,-4.25024 11.6924,-3.51377 1.8183,0.69775 1.95666,8.29167 0.1927,10.57644 -0.6875,0.89048 -3.21423,2.13276 -5.61495,2.76062 -5.36806,1.40392 -8.63301,4.53163 -10.0472,9.62485 -0.59218,2.13275 -1.07921,10.46709 -1.08227,18.52074 -0.005,12.42663 -0.245,14.73489 -1.58737,15.25 -2.7235,1.04511 -9.96277,0.66243 -11.21821,-0.59301 z m 40.55,0.1199 c -1.59789,-0.93068 -1.75,-3.3525 -1.75,-27.8626 0,-23.55511 0.19376,-26.91768 1.58179,-27.45031 2.44752,-0.9392 7.34185,-0.71823 9.48395,0.42819 1.83697,0.98312 1.93426,2.35621 1.93426,27.3 0,19.09486 -0.32758,26.5924 -1.2,27.46482 -1.45426,1.45426 -7.63249,1.52797 -10.05,0.1199 z m 115.82143,-0.49133 C 487.22429,200.79595 487,196.89936 487,174.84308 c 0,-18.67778 0.32885,-26.05742 1.2,-26.92857 1.75122,-1.75122 9.35753,-1.49961 11.22857,0.37143 1.34714,1.34713 1.57143,5.24372 1.57143,27.3 0,18.67778 -0.32885,26.05742 -1.2,26.92857 -1.75122,1.75122 -9.35753,1.49961 -11.22857,-0.37143 z M 570,201.71451 c -1.89145,-1.89145 -2,-3.33333 -2,-26.56574 0,-15.02144 0.40219,-25.31724 1.03518,-26.5 1.60566,-3.0002 9.34919,-2.70158 12.29225,0.47404 l 2.23194,2.4083 3.94458,-2.38066 c 5.05258,-3.04936 11.57059,-4.02979 16.65774,-2.50564 5.02356,1.50509 11.43229,7.24672 12.70856,11.38567 1.47939,4.79767 2.18857,22.84954 1.36259,34.68403 l -0.73284,10.5 -5.39279,0.30721 c -2.96603,0.16897 -5.80474,-0.10474 -6.30823,-0.60823 -0.5035,-0.5035 -1.00174,-9.19174 -1.10721,-19.30721 -0.20801,-19.94931 -0.63288,-21.77572 -5.67175,-24.38142 -3.74,-1.93403 -7.335,-1.91595 -11.14846,0.0561 C 582.86658,161.86913 582,165.5886 582,184.48242 c 0,11.75832 -0.36172,17.19384 -1.2,18.03212 -1.95157,1.95157 -8.53618,1.46382 -10.8,-0.8 z M 374.31537,136.70753 c -4.50443,-1.81488 -5.86401,-9.44438 -2.31537,-12.99302 4.49034,-4.49034 13,-1.27093 13,4.91821 0,4.28283 -0.9087,5.98322 -4.07152,7.61878 -3.19708,1.65327 -3.57666,1.67945 -6.61311,0.45603 z m 117.04163,0.006 c -2.72563,-1.08807 -5.357,-4.81471 -5.357,-7.58675 0,-1.17845 0.93266,-3.32832 2.07258,-4.77749 2.9279,-3.72223 8.92694,-3.72223 11.85484,0 2.68571,3.41432 2.62681,6.64397 -0.17742,9.72856 -2.66887,2.9357 -5.45205,3.80971 -8.393,2.63568 z M 276.49091,110.92969 c -11.39771,-5.50509 -18.3748,-17.222851 -20.09476,-33.748451 -1.66338,-15.98194 7.06749,-33.08976 20.18094,-39.54381 4.22136,-2.07763 6.34797,-2.42127 14.92291,-2.41138 8.47865,0.01 10.72636,0.37059 14.77443,2.37161 9.21167,4.55348 12.80788,9.77642 8.56922,12.44549 -1.30288,0.82041 -2.42614,0.36712 -5.2635,-2.12412 -6.23506,-5.47446 -9.37732,-6.66512 -17.58015,-6.66148 -8.45544,0.004 -13.31408,1.95247 -18.76267,7.52542 -11.92935,12.20163 -11.86805,38.03504 0.12047,50.769176 9.90647,10.522595 25.27326,10.694105 36.71194,0.40976 4.10389,-3.68975 5.4592,-4.40388 6.77976,-3.57233 4.43612,2.79338 0.28543,8.656295 -9.55951,13.502935 -5.67165,2.79214 -7.85075,3.29094 -15.68825,3.59105 -8.37618,0.32073 -9.58076,0.11714 -15.11083,-2.55387 z M 375,111.47117 c -3.02461,-1.61118 -5.31966,-3.84947 -7,-6.82688 -2.393,-4.24019 -2.51459,-5.276715 -2.84099,-24.217681 -0.35581,-20.64857 -0.001,-22.71209 3.90442,-22.71209 1.00019,0 2.17041,0.5625 2.60049,1.25 0.43007,0.6875 0.85449,9.35216 0.94315,19.2548 0.12301,13.73945 0.52974,18.886856 1.71689,21.728106 4.18472,10.015465 20.61527,10.463855 25.84877,0.705415 C 401.75446,97.703545 402,94.750965 402,78.680119 c 0,-19.17092 0.35651,-20.9656 4.16482,-20.9656 3.47235,0 3.9212,3.3462 3.78001,28.18007 -0.0755,13.286906 -0.36717,24.756941 -0.64807,25.488971 -0.91276,2.3786 -5.25441,1.57253 -6.29676,-1.16905 -0.52277,-1.375 -1.19628,-2.5 -1.49669,-2.5 -0.3004,0 -2.39931,1.22634 -4.66423,2.72519 -5.94672,3.93535 -15.53739,4.38832 -21.83908,1.03147 z m 101.8533,0.22825 C 472.86136,109.59032 469,103.03478 469,98.366665 c 0,-7.443046 6.83194,-15.054526 14.55181,-16.212186 2.54991,-0.38239 7.71598,-0.47489 11.48016,-0.20556 4.15858,0.29754 7.26066,0.073 7.90599,-0.57236 2.94403,-2.94403 -0.93401,-13.46984 -6.12982,-16.63765 -4.66573,-2.84462 -11.19153,-2.63857 -16.73178,0.5283 -4.06765,2.32512 -4.55049,2.39853 -6,0.91227 -1.43985,-1.47637 -1.29186,-1.85679 1.70893,-4.39294 8.32924,-7.03955 21.86249,-6.65954 29.34606,0.82404 5.26198,5.26197 5.9557,9.04895 5.64094,30.79356 L 510.5,112.21451 h -2.9863 c -2.21223,0 -3.06984,-0.51842 -3.30855,-2 -0.755,-4.68584 -1.16447,-4.91313 -3.9847,-2.21183 -5.98342,5.73111 -16.39815,7.37874 -23.36715,3.69674 z m 17.18481,-5.23491 c 3.50761,-1.76878 5.05773,-3.42631 7.24785,-7.749995 1.53227,-3.025 2.65727,-6.388736 2.5,-7.474966 -0.42688,-2.94826 -4.50056,-4.4938 -11.88808,-4.51029 -7.92992,-0.0177 -12.57565,2.54334 -14.68978,8.098006 -1.87329,4.92192 0.31872,10.344775 5.00447,12.380635 4.56519,1.98349 6.68184,1.85043 11.82554,-0.74339 z m 41.01077,4 c -7.78081,-4.71552 -11.27888,-11.301175 -11.8574,-22.323371 -0.59764,-11.38658 1.62624,-18.31969 7.88867,-24.59353 7.16676,-7.17981 15.42522,-8.68983 24.41985,-4.46506 2.75,1.29167 5.85724,3.31228 6.90499,4.49023 1.04774,1.17796 2.28524,2.14174 2.75,2.14174 0.46475,0 0.8519,-7.0875 0.86032,-15.75 0.008,-8.6625 0.39682,-16.35187 0.86309,-17.0875 0.46628,-0.73562 1.92189,-1.18562 3.23469,-1 l 2.38691,0.3375 v 39.9863 c 0,38.735691 -0.0605,39.997951 -1.9339,40.358741 -2.34511,0.45162 -4.53456,-2.24966 -3.87321,-4.77867 0.84881,-3.24586 -1.65889,-3.31428 -4.63672,-0.12651 -3.8963,4.17101 -8.82733,6.06013 -15.81829,6.06013 -4.80663,0 -6.76492,-0.56881 -11.189,-3.25 z m 21.44828,-5.04667 c 11.16173,-6.321385 12.93157,-28.851641 2.95454,-37.611591 -9.09887,-7.98891 -20.96522,-5.65335 -26.688,5.25279 -3.02535,5.76553 -3.04314,18.35723 -0.0341,24.155476 5.14772,9.919475 14.83417,13.262725 23.7676,8.203325 z m 35.7437,6.30207 c -4.75619,-2.89988 -7.23269,-7.55629 -7.23712,-13.607515 -0.005,-6.491026 2.89223,-11.063356 9.00433,-14.211596 3.97724,-2.0486 5.63773,-2.27776 14.49193,-2 l 10,0.31372 0.30425,-4.18351 c 0.90422,-12.43332 -12.08682,-19.44321 -23.56591,-12.71602 -2.94117,1.72364 -4.77263,2.26523 -5.43164,1.60622 -2.01105,-2.01104 -0.16097,-4.67866 5.19733,-7.49402 4.69714,-2.46798 6.36806,-2.8306 11.49597,-2.49485 11.6102,0.76017 17.68556,6.16655 19.52039,17.37094 1.0618,6.48388 1.34323,34.300071 0.37262,36.829441 -0.82992,2.16274 -5.31208,2.03725 -6.00792,-0.16821 -1.80848,-5.73188 -1.72069,-5.67835 -4.92484,-3.00305 -7.31898,6.11099 -16.83467,7.65126 -23.21939,3.75845 z M 611,105.84475 c 3.52528,-2.55814 6.83509,-7.734285 7.61962,-11.916201 0.9822,-5.23552 -1.85069,-7.21403 -10.32927,-7.21403 -10.56083,0 -16.29035,4.15565 -16.29035,11.815476 0,3.269845 3.19009,7.888985 6.38812,9.249765 2.94832,1.25453 9.62899,0.22953 12.61188,-1.93501 z m -279.28742,6.249 C 331.32066,111.70184 331,99.811275 331,85.670289 c 0,-22.23894 0.21388,-25.88839 1.58382,-27.02534 2.15265,-1.78653 4.7646,-0.0627 5.41618,3.57456 l 0.5,2.79111 3,-2.49948 c 3.95319,-3.29365 6.22343,-4.39317 10.76306,-5.21276 3.01279,-0.54394 3.89187,-0.3437 4.40914,1.0043 1.03594,2.6996 -0.91937,4.63505 -6.65082,6.58322 -5.9584,2.02533 -8.71002,4.10535 -10.35632,7.82862 -0.60797,1.375 -1.34383,10.825 -1.63524,21 L 337.5,112.21451 l -2.53742,0.29591 c -1.39559,0.16275 -2.85809,-0.0248 -3.25,-0.41667 z m 89.63272,-0.92179 c -0.9079,-2.36594 0.21543,-4.27718 14.66865,-24.957441 7.3034,-10.45 13.4905,-19.7875 13.74911,-20.75 0.43082,-1.60344 -0.65992,-1.75 -13.02398,-1.75 -10.77489,0 -13.74506,-0.30228 -14.73908,-1.5 -0.99399,-1.19769 -0.99038,-1.80666 0.0179,-3.02155 1.06323,-1.28111 4.20362,-1.47864 19.87245,-1.25 18.35492,0.26783 18.61398,0.30187 18.92462,2.48644 0.21766,1.53073 -4.18406,8.69444 -14.25,23.19156 C 438.55423,95.158135 432,105.07394 432,105.65607 c 0,0.69252 4.75356,1.06373 13.75,1.07375 7.5625,0.008 14.35678,0.39985 15.09839,0.86983 0.74162,0.46998 1.18578,1.70059 0.98702,2.73469 -0.33703,1.75346 -1.69303,1.89845 -20.12164,2.15139 -17.27495,0.2371 -19.83675,0.0719 -20.36847,-1.31377 z"
       id="path22" />
  </g>
</svg>
